<?xml version="1.0" encoding="UTF-8" standalone="no"?>
<svg
   width="128"
   height="128"
   xml:space="preserve"
   version="1.1"
   id="svg1"
   sodipodi:docname="globe_colored.svg"
   inkscape:version="1.4 (86a8ad7, 2024-10-11)"
   xmlns:inkscape="http://www.inkscape.org/namespaces/inkscape"
   xmlns:sodipodi="http://sodipodi.sourceforge.net/DTD/sodipodi-0.dtd"
   xmlns:xlink="http://www.w3.org/1999/xlink"
   xmlns="http://www.w3.org/2000/svg"
   xmlns:svg="http://www.w3.org/2000/svg"><defs
   id="defs1"><linearGradient
     id="linearGradient2"
     inkscape:collect="always"><stop
       style="stop-color:#0743c5;stop-opacity:1;"
       offset="0"
       id="stop2" /><stop
       style="stop-color:#003096;stop-opacity:1;"
       offset="1"
       id="stop3" /></linearGradient><linearGradient
     inkscape:collect="always"
     xlink:href="#linearGradient2"
     id="linearGradient3"
     x1="0.093501724"
     y1="30.014053"
     x2="60.215111"
     y2="30.014053"
     gradientUnits="userSpaceOnUse"
     gradientTransform="matrix(0.99799562,0,0,1.002478,-0.10137509,-0.09007544)" /></defs><sodipodi:namedview
   id="namedview1"
   pagecolor="#ffffff"
   bordercolor="#000000"
   borderopacity="0.25"
   inkscape:showpageshadow="2"
   inkscape:pageopacity="0.0"
   inkscape:pagecheckerboard="0"
   inkscape:deskcolor="#d1d1d1"
   inkscape:zoom="1.4142136"
   inkscape:cx="-10.960155"
   inkscape:cy="128.33988"
   inkscape:window-width="1280"
   inkscape:window-height="650"
   inkscape:window-x="-6"
   inkscape:window-y="1074"
   inkscape:window-maximized="1"
   inkscape:current-layer="g1"
   showguides="true" />

 <g
   id="g1"
   style="fill:#b6c1d2;fill-opacity:1"
   transform="matrix(2.1345787,0,0,2.1345787,-0.04923311,-0.00772658)">
  <title
   id="title1">Layer 1</title>
  <rect
   style="fill:url(#linearGradient3);fill-opacity:1;stroke-width:1.00023"
   id="rect1"
   width="60"
   height="60"
   x="-0.0080607757"
   y="0.0036579743" /><path
   id="path3"
   style="fill:#ffffff;fill-opacity:1;stroke-width:0.619484"
   inkscape:label="path3"
   d="m 36.157479,13.488726 c 0.926271,0.923386 1.098021,2.38521 0.606142,3.565085 -0.706498,1.723916 -2.145114,3.033578 -3.644146,4.079752 -2.422795,1.604163 -5.244696,2.510241 -8.077952,3.062866 -2.132967,0.38639 -4.406508,0.412494 -6.448749,-0.396729 -1.167166,-0.512763 -2.394465,-1.182 -3.04081,-2.327618 -0.20281,-0.372519 -0.347948,-0.783424 -0.363799,-1.210162 -0.662965,1.201268 -0.753369,2.676069 -0.398067,3.985512 0.727813,2.009098 2.684277,3.285816 4.668726,3.841728 1.259622,0.352333 2.468045,0.526553 3.779012,0.543062 3.495498,0.06445 7.038031,-0.668411 10.107025,-2.377357 0.670843,-0.365329 1.222512,-0.69656 1.85821,-1.147157 1.953353,-1.377174 3.660903,-3.258002 4.436589,-5.551178 0.496234,-1.469274 0.265896,-3.206978 -0.807979,-4.367365 -0.767231,-0.881689 -1.803235,-1.488851 -2.8811,-1.913387 0.06897,0.07099 0.137931,0.141965 0.206898,0.212948 z m 7.836723,5.07445 c 0.396808,1.635459 0.375901,3.402478 -0.320281,4.956817 -1.145779,2.845388 -3.437132,5.04435 -5.876985,6.813392 -3.110727,2.28749 -6.800514,3.766336 -10.632597,4.245626 -1.715671,0.220765 -3.463318,0.253481 -5.184108,0.07194 -3.167934,-0.337869 -6.378042,-1.580847 -8.518016,-4.017164 -0.599964,-0.705164 -1.0394,-1.537762 -1.337596,-2.411727 0.114048,2.535898 0.814963,5.189245 2.638794,7.046445 2.064894,2.117755 4.886943,3.376374 7.75672,3.956757 1.890991,0.401916 3.839768,0.393645 5.757547,0.236337 2.995085,-0.328521 5.946147,-1.178505 8.630571,-2.551417 3.034701,-1.527929 5.545869,-4.005382 7.270283,-6.918042 0.870271,-1.594798 1.345099,-3.406862 1.438446,-5.217629 0.12069,-1.902352 -0.185406,-3.869592 -1.159685,-5.531151 -0.128199,-0.199473 -0.396403,-0.699721 -0.467856,-0.699831 z m 2.802201,14.735749 c -8.68e-4,0.0043 0.0032,-0.0047 0,0 z m 0,0.0012 c -2.238209,3.744674 -5.454911,6.989499 -9.446503,8.830495 -3.403268,1.575425 -7.204446,2.226733 -10.940972,2.091592 -3.723446,-0.178134 -7.381045,-1.430801 -10.435518,-3.566916 3.163115,3.597273 7.849741,5.727022 12.604279,6.036468 2.129994,0.09557 4.279604,-0.135362 6.308241,-0.808284 5.517321,-1.744051 10.122091,-6.297072 11.733823,-11.877965 0.06312,-0.234091 0.122318,-0.469102 0.17665,-0.70539 z" /><g
   id="g4"><g
     id="g3" /></g>
 </g>
</svg>
