<?xml version="1.0" encoding="UTF-8" standalone="no"?>
<!-- Created with Inkscape (http://www.inkscape.org/) -->

<svg
   width="192.50792mm"
   height="58.443817mm"
   viewBox="0 0 192.50792 58.443817"
   version="1.1"
   id="svg1"
   xml:space="preserve"
   xmlns:inkscape="http://www.inkscape.org/namespaces/inkscape"
   xmlns:sodipodi="http://sodipodi.sourceforge.net/DTD/sodipodi-0.dtd"
   xmlns="http://www.w3.org/2000/svg"
   xmlns:svg="http://www.w3.org/2000/svg"><sodipodi:namedview
     id="namedview1"
     pagecolor="#ffffff"
     bordercolor="#000000"
     borderopacity="0.25"
     inkscape:showpageshadow="2"
     inkscape:pageopacity="0.0"
     inkscape:pagecheckerboard="0"
     inkscape:deskcolor="#d1d1d1"
     inkscape:document-units="mm" /><defs
     id="defs1" /><g
     inkscape:label="Layer 1"
     inkscape:groupmode="layer"
     id="layer1"
     transform="translate(-260.5976,-126.16548)"><path
       style="fill:#ffffff"
       d="m 288.51397,184.56779 c -6.10313,-0.2553 -11.97712,-2.32759 -16.67698,-5.8835 -1.07876,-0.81619 -1.85147,-1.49751 -2.9797,-2.62728 -2.27213,-2.27526 -3.80583,-4.40393 -5.23167,-7.26116 -2.5229,-5.05565 -3.48723,-10.72313 -2.82548,-16.60575 0.52482,-4.6655 2.04682,-8.91025 4.56927,-12.7434 3.52377,-5.35478 8.96463,-9.38377 15.23032,-11.27815 2.71596,-0.82115 5.30396,-1.22412 8.26762,-1.28732 5.17188,-0.11028 9.94737,0.94592 14.32298,3.16784 2.47934,1.259 4.84734,2.96017 6.51093,4.67744 l 0.49879,0.51489 -0.57438,0.57058 c -1.31986,1.31114 -5.96517,5.81998 -5.99614,5.81998 -0.0185,0 -0.2349,-0.20642 -0.48092,-0.45871 -1.36839,-1.40323 -3.22572,-2.67904 -5.20186,-3.57318 -3.97768,-1.79977 -8.80216,-2.24495 -13.0526,-1.20443 -5.30781,1.29936 -9.74351,4.86714 -12.27457,9.87283 -1.14952,2.2734 -1.80397,4.45678 -2.12995,7.10596 -0.12813,1.04124 -0.12856,3.60696 -7.8e-4,4.6365 0.32118,2.58781 0.97783,4.75092 2.11889,6.97996 1.00068,1.95481 2.10129,3.46407 3.65726,5.01517 3.42734,3.41661 7.91312,5.38116 12.75663,5.58676 3.28657,0.13951 6.70867,-0.32945 9.35904,-1.28255 0.7168,-0.25777 2.00703,-0.87725 2.43073,-1.16708 l 0.27719,-0.1896 0.0128,-5.88383 0.0128,-5.88383 h -6.32501 -6.32501 v -4.48531 -4.48532 h 11.0621 11.06211 l -0.002,12.6874 -0.002,12.6874 -0.39292,0.33719 c -2.46719,2.11723 -6.17009,4.05334 -9.90851,5.18077 -2.89892,0.87426 -5.73653,1.33506 -8.99745,1.46108 -1.38992,0.0537 -1.4567,0.0537 -2.77243,-0.001 z m 55.84869,-0.95384 c 0.018,-0.0524 19.37703,-24.64073 20.73216,-26.33232 0.44474,-0.55516 1.14906,-1.43264 1.56517,-1.94995 2.34134,-2.91076 3.61099,-5.24588 4.22726,-7.77467 0.3118,-1.27943 0.45058,-2.98413 0.33262,-4.08556 -0.35838,-3.3461 -2.3155,-6.03254 -5.16977,-7.09629 -2.26616,-0.84457 -5.18495,-0.67153 -7.4653,0.44257 -2.39761,1.1714 -4.28413,3.45184 -5.25948,6.35771 -0.19929,0.59373 -0.27002,0.74876 -0.3402,0.74564 -0.073,-0.003 -8.42295,-3.02997 -8.46896,-3.06988 -0.0282,-0.0244 0.30676,-1.01667 0.55302,-1.63828 0.74845,-1.88928 1.89856,-3.86577 3.19649,-5.49326 0.65621,-0.82282 2.10753,-2.28655 2.86697,-2.89149 2.72602,-2.17141 5.76562,-3.40474 9.4746,-3.84434 1.05275,-0.12477 3.7954,-0.12541 4.91369,-10e-4 4.33033,0.48121 7.73254,1.96954 10.36435,4.53398 1.06618,1.03889 1.76797,1.92383 2.51042,3.16557 2.68437,4.48965 3.22233,10.61103 1.41773,16.13225 -0.70109,2.14497 -1.92431,4.54362 -3.31641,6.50319 -0.24133,0.33971 -3.3161,4.33694 -6.83282,8.88273 l -6.39402,8.26508 8.91168,0.0127 8.91169,0.0127 v 4.58597 4.58597 h -18.37384 c -11.86992,0 -18.3679,-0.0173 -18.35705,-0.049 z m 77.60272,-0.75983 c -6.59629,-0.47224 -13.02436,-3.07868 -17.97909,-7.29013 -2.01851,-1.71572 -3.83314,-3.82428 -4.94543,-5.74651 -0.30543,-0.52783 -0.87183,-1.67514 -0.85336,-1.7286 0.009,-0.0251 0.1972,0.11556 0.41895,0.31263 5.63379,5.00699 11.65852,7.75826 18.57123,8.48078 4.48911,0.46921 9.99194,-0.11475 14.66043,-1.55574 7.344,-2.26684 13.33565,-6.88554 17.98446,-13.86343 0.96618,-1.45025 1.85308,-2.96624 2.91007,-4.97426 l 0.35278,-0.67019 0.0166,0.27718 c 0.024,0.40133 -0.0797,1.77336 -0.1982,2.62064 -0.89408,6.39416 -4.72234,12.86074 -10.32614,17.44259 -4.56195,3.73 -10.09054,6.02962 -15.9254,6.62417 -0.92543,0.0943 -3.76079,0.13717 -4.6869,0.0709 z m -5.54365,-11.5198 c -4.94326,-0.3438 -9.21524,-1.64037 -13.06171,-3.96429 -3.80175,-2.29691 -6.24775,-5.20234 -7.47607,-8.88033 -0.86931,-2.60297 -1.30791,-5.93027 -1.08049,-8.19674 0.0949,-0.9457 0.51589,-2.8057 0.65442,-2.89132 0.0646,-0.0399 0.0591,-0.0619 0.27352,1.08429 0.81181,4.33966 2.02818,6.58202 4.73973,8.73762 3.3315,2.64845 7.48163,4.10939 12.7,4.4707 1.1002,0.0762 4.14393,0.0314 5.21607,-0.0767 6.63832,-0.66935 12.18953,-2.68591 17.4758,-6.34836 2.02988,-1.40636 3.41824,-2.53977 4.9434,-4.03565 2.10808,-2.0676 3.4386,-3.8571 4.49724,-6.04863 1.05289,-2.17961 1.43931,-3.9363 1.30258,-5.92163 -0.0894,-1.29742 -0.38595,-2.80861 -0.7578,-3.86119 -0.75394,-2.13406 -0.85012,-2.48881 -0.6748,-2.48881 0.0747,0 1.41862,1.34555 1.93794,1.94028 0.6433,0.73669 1.42973,1.93332 1.95415,2.97341 0.84285,1.67163 1.31747,3.30862 1.5854,5.46806 0.10132,0.81659 0.0863,3.5166 -0.0247,4.43492 -0.30349,2.51098 -1.03862,5.09205 -1.98753,6.97823 -1.0938,2.17418 -3.08118,4.8154 -5.27595,7.01171 -1.7118,1.713 -3.37198,3.00941 -5.4372,4.24584 -2.77193,1.65953 -5.46096,2.8013 -9.03546,3.8365 -2.56741,0.74355 -4.67285,1.14654 -7.52963,1.44124 -0.74229,0.0766 -4.22336,0.14058 -4.93889,0.0908 z m -99.13056,-7.40176 v -4.56091 h 10.65893 10.65892 v 4.56091 4.56091 H 327.9501 317.29117 Z m 95.42639,-10.23703 c -4.56252,-0.29367 -8.01709,-1.42867 -10.53294,-3.4606 -0.57685,-0.4659 -1.5556,-1.49438 -1.95309,-2.05233 -0.38431,-0.53945 -0.93087,-1.59977 -1.11656,-2.16611 -0.26144,-0.79735 -0.33994,-1.31978 -0.36729,-2.44425 -0.02,-0.8212 -0.007,-1.19159 0.0572,-1.65306 0.24362,-1.74683 0.90538,-3.27067 1.87535,-4.31835 0.26137,-0.28231 0.87548,-0.80696 0.94456,-0.80696 0.046,0 0.0341,0.43036 -0.0238,0.85675 -0.0796,0.58644 -0.0632,1.64373 0.0322,2.07278 0.10422,0.46884 0.44097,1.1864 0.74506,1.58758 0.75467,0.99564 2.50009,2.17093 4.21539,2.83845 0.97902,0.381 2.14416,0.66853 3.40242,0.83965 0.82022,0.11154 3.15932,0.12782 4.10734,0.0286 2.49015,-0.26066 5.11692,-0.85544 7.93053,-1.79571 4.38157,-1.46426 7.59839,-3.33262 10.03927,-5.8309 1.93999,-1.98562 2.89449,-3.82448 2.89449,-5.57629 0,-1.21781 -0.46585,-2.20234 -1.52028,-3.21295 -0.51979,-0.4982 -0.8778,-0.78356 -2.03556,-1.62249 -0.5005,-0.36267 -0.94176,-0.69767 -0.98056,-0.74443 -0.0654,-0.0789 -0.0452,-0.0825 0.28004,-0.0507 1.69737,0.16603 3.47432,0.69332 5.13161,1.52275 2.97853,1.49067 4.87123,3.64008 5.42775,6.16393 0.71764,3.25447 -0.68387,6.98754 -4.01349,10.69038 -1.91056,2.12472 -4.61624,4.09971 -7.78276,5.68096 -1.32971,0.66401 -2.02085,0.96609 -3.30817,1.4459 -2.67065,0.99543 -5.54263,1.61817 -8.83747,1.91628 -0.83457,0.0755 -3.90985,0.1363 -4.61131,0.0911 z"
       id="path3"
       inkscape:export-filename="path3.png"
       inkscape:export-xdpi="96"
       inkscape:export-ydpi="96" /></g></svg>
