<svg width="800" height="200" xmlns="http://www.w3.org/2000/svg">
 <g>
  <title>Layer 1</title>
  <g stroke="null">

   <path stroke="null" fill="url(#svg_7)" d="m220.26477,98.59302l266.94152,0l0,20.8127l-266.94152,0l0,-20.8127zm-115.17337,20.29504l64.16366,0c-2.28303,39.56803 -21.30382,59.86307 -60.36746,59.86307s-64.68132,-27.14412 -64.68132,-78.11401c0,-46.41711 20.54724,-79.64045 65.94229,-79.64045c32.21456,0 50.2133,17.49435 54.02277,40.829l26.37426,0c-4.31386,-33.72773 -32.46676,-61.37624 -79.13606,-61.37624c-59.61088,0 -94.59958,40.07242 -94.59958,100.18769c0,56.3058 32.21456,98.91344 92.06436,98.91344c55.29702,0 86.48953,-33.72773 86.48953,-88.52036l0,-12.42391l-90.28572,0l0,20.29504l0.01327,-0.01327zm463.93218,6.96854l22.06041,-11.41513c23.33465,-11.91952 38.04159,-28.1529 38.04159,-53.77058c0,-33.9932 -24.09124,-58.08444 -58.33663,-58.08444c-42.35545,0 -65.18571,20.54724 -66.96435,62.90268l23.83904,0c1.77864,-26.62646 14.70694,-43.11203 41.34667,-43.11203c20.04285,0 35.75856,12.9283 35.75856,35.75856c0,18.01202 -10.91074,28.90948 -23.33465,35.50637l-24.86109,13.19377c-41.85106,22.32587 -53.51838,41.85106 -52.74853,89.52914l125.2877,0l0,-21.30382l-100.69208,0c2.03083,-25.11329 13.19377,-35.00198 40.57681,-49.20453l0.02655,0zm214.16645,-27.14412c0,67.97313 -31.96237,99.93549 -68.72971,99.93549s-68.72971,-31.96237 -68.72971,-99.93549s31.96237,-97.40027 68.72971,-97.40027s68.72971,30.68812 68.72971,97.40027zm-26.10879,0c0,-56.3058 -19.02079,-77.10523 -42.60764,-77.10523s-42.60764,20.79943 -42.60764,77.10523s19.02079,79.64045 42.60764,79.64045s42.60764,-20.79943 42.60764,-79.64045z" class="cls-1"/>
  </g>
 </g>
 <defs>
  <linearGradient gradientTransform="matrix(1.327340841293335,0,0,1.327340841293335,-161.73065948486328,-198.6649627685547)" gradientUnits="userSpaceOnUse" y2="225" x2="134.52" y1="225" x1="711.89" id="svg_7">
   <stop stop-color="#0f1724" offset="0"/>
   <stop stop-color="#0d214b" offset="0.25"/>
   <stop stop-color="#1c5d93" offset="0.5"/>
   <stop stop-color="#b59c90" offset="0.75"/>
   <stop stop-color="#ef642d" offset="1"/>
  </linearGradient>
 </defs>
</svg>