<svg width="800" height="200" xmlns="http://www.w3.org/2000/svg">
 <g>
  <title>Layer 1</title>
  <g id="svg_1" stroke="null">
   <path id="svg_2" class="cls-1" d="m225.18268,98.65093l259.62791,0l0,20.24248l-259.62791,0l0,-20.24248z" fill="#fff" stroke="null"/>
   <path id="svg_3" class="cls-1" d="m27.315,100.62612c0,-58.46824 34.043,-97.44276 92.00776,-97.44276c45.39067,0 72.77224,26.891 76.96791,59.69467l-25.65167,0c-3.7051,-22.69533 -21.21071,-39.71038 -52.54267,-39.71038c-44.15133,0 -64.13562,32.31309 -64.13562,77.45848c0,49.58634 26.40043,75.97386 62.90919,75.97386s56.49305,-19.739 58.71353,-58.22296l-62.40571,0l0,-19.739l87.81209,0l0,12.08352c0,53.27852 -30.3379,86.0951 -84.11991,86.0951c-58.22296,0 -89.542,-41.44029 -89.542,-96.20343l-0.01291,0.01291l0.00001,-0.00001z" fill="#fff" stroke="null"/>
   <path id="svg_4" class="cls-1" d="m552.30274,106.66788l24.17995,-12.83229c12.08352,-6.41614 22.69533,-17.01505 22.69533,-34.53357c0,-22.20476 -15.29805,-34.77886 -34.77886,-34.77886c-25.89695,0 -38.48395,16.0339 -40.21386,41.93086l-23.1859,0c1.72991,-41.195 23.92176,-61.17929 65.12967,-61.17929c33.30715,0 56.73833,23.43119 56.73833,56.49305c0,24.91581 -14.304,40.70443 -36.99933,52.29738l-21.456,11.10238c-26.64572,13.81343 -37.50281,23.43119 -39.46509,47.85643l97.93333,0l0,20.72014l-121.85509,0c-0.73586,-46.37181 10.61181,-65.37495 51.30333,-87.07624l-0.02582,0l0.00001,0.00001z" fill="#fff" stroke="null"/>
   <path id="svg_5" class="cls-1" d="m638.99168,98.76712c0,-64.87147 31.08667,-94.73172 66.84667,-94.73172s66.84667,29.84733 66.84667,94.73172s-31.08667,97.19748 -66.84667,97.19748s-66.84667,-31.08667 -66.84667,-97.19748zm66.84667,77.45848c22.94062,0 41.44029,-20.22957 41.44029,-77.45848s-18.49967,-74.99272 -41.44029,-74.99272s-41.44029,20.22957 -41.44029,74.99272s18.49967,77.45848 41.44029,77.45848z" fill="#fff" stroke="null"/>
  </g>
 </g>

</svg>