<svg width="800" height="200" xmlns="http://www.w3.org/2000/svg">
 <g>
  <title>Layer 1</title>
  <g stroke="null" id="svg_1">
   <path stroke="null" id="svg_2" d="m221.43008,98.62197l265.20104,0l0,20.677l-265.20104,0l0,-20.677z"/>
   <path stroke="null" id="svg_3" d="m19.315,100.63956c0,-59.72331 34.77376,-99.53446 93.98279,-99.53446c46.36502,0 74.33436,27.46824 78.62009,60.97606l-26.2023,0c-3.78463,-23.18251 -21.66602,-40.5628 -53.67054,-40.5628c-45.09908,0 -65.51235,33.00672 -65.51235,79.12119c0,50.65075 26.96714,77.6047 64.25959,77.6047s57.70572,-20.16272 59.97386,-59.47276l-63.74531,0l0,-20.16272l89.69706,0l0,12.34291c0,54.42219 -30.98913,87.9432 -85.92561,87.9432c-59.47276,0 -91.4641,-42.32984 -91.4641,-98.26852l-0.01319,0.01319z"/>
   <path stroke="null" id="svg_4" d="m555.57205,106.81101l24.699,-13.10774c12.34291,-6.55387 23.18251,-17.38029 23.18251,-35.27486c0,-22.68141 -15.62643,-35.52541 -35.52541,-35.52541c-26.45285,0 -39.31004,16.37809 -41.07708,42.83094l-23.68361,0c1.76704,-42.07929 24.43526,-62.49255 66.52773,-62.49255c34.02211,0 57.95627,23.93416 57.95627,57.70572c0,25.45065 -14.61105,41.57819 -37.79355,53.41999l-21.91657,11.3407c-27.21769,14.10995 -38.30784,23.93416 -40.31225,48.88371l100.03556,0l0,21.16492l-124.47082,0c-0.75165,-47.36722 10.8396,-66.77828 52.4046,-88.9454l-0.02637,0z"/>
   <path stroke="null" id="svg_5" d="m644.12185,98.74065c0,-66.264 31.75397,-96.76521 68.28159,-96.76521s68.28159,30.48803 68.28159,96.76521s-31.75397,99.28391 -68.28159,99.28391s-68.28159,-31.75397 -68.28159,-99.28391zm68.28159,79.12119c23.43306,0 42.32984,-20.66382 42.32984,-79.12119s-18.89678,-76.6025 -42.32984,-76.6025s-42.32984,20.66382 -42.32984,76.6025s18.89678,79.12119 42.32984,79.12119z"/>
  </g>
 </g>

</svg>