<?xml version="1.0" encoding="UTF-8"?>
<svg id="Layer_1" data-name="Layer 1" xmlns="http://www.w3.org/2000/svg" xmlns:xlink="http://www.w3.org/1999/xlink" viewBox="0 0 846.42 450.67">
  <defs>
    <style>
      .cls-1 {
        fill: url(#linear-gradient);
      }
    </style>
    <linearGradient id="linear-gradient" x1="711.89" y1="225" x2="134.52" y2="225" gradientUnits="userSpaceOnUse">
      <stop offset="0" stop-color="#0f1724"/>
      <stop offset=".25" stop-color="#0d214b"/>
      <stop offset=".5" stop-color="#1c5d93"/>
      <stop offset=".75" stop-color="#b59c90"/>
      <stop offset="1" stop-color="#ef642d"/>
    </linearGradient>
  </defs>
  <path class="cls-1" d="M287.79,223.95h201.11v15.68h-201.11v-15.68ZM201.02,239.24h48.34c-1.72,29.81-16.05,45.1-45.48,45.1s-48.73-20.45-48.73-58.85c0-34.97,15.48-60,49.68-60,24.27,0,37.83,13.18,40.7,30.76h19.87c-3.25-25.41-24.46-46.24-59.62-46.24-44.91,0-71.27,30.19-71.27,75.48,0,42.42,24.27,74.52,69.36,74.52,41.66,0,65.16-25.41,65.16-66.69v-9.36h-68.02v15.29ZM550.54,244.49l16.62-8.6c17.58-8.98,28.66-21.21,28.66-40.51,0-25.61-18.15-43.76-43.95-43.76-31.91,0-49.11,15.48-50.45,47.39h17.96c1.34-20.06,11.08-32.48,31.15-32.48,15.1,0,26.94,9.74,26.94,26.94,0,13.57-8.22,21.78-17.58,26.75l-18.73,9.94c-31.53,16.82-40.32,31.53-39.74,67.45h94.39v-16.05h-75.86c1.53-18.92,9.94-26.37,30.57-37.07ZM711.89,224.04c0,51.21-24.08,75.29-51.78,75.29s-51.78-24.08-51.78-75.29,24.08-73.38,51.78-73.38,51.78,23.12,51.78,73.38ZM692.22,224.04c0-42.42-14.33-58.09-32.1-58.09s-32.1,15.67-32.1,58.09,14.33,60,32.1,60,32.1-15.67,32.1-60Z"/>
</svg>