<?xml version="1.0" encoding="UTF-8"?>
<svg id="Layer_1" data-name="Layer 1" xmlns="http://www.w3.org/2000/svg" viewBox="0 0 846.42 450.67">
  <path d="M287.79,223.95h201.11v15.68h-201.11v-15.68Z"/>
  <path d="M134.52,225.48c0-45.29,26.37-75.48,71.27-75.48,35.16,0,56.37,20.83,59.62,46.24h-19.87c-2.87-17.58-16.43-30.76-40.7-30.76-34.2,0-49.68,25.03-49.68,60,0,38.41,20.45,58.85,48.73,58.85s43.76-15.29,45.48-45.1h-48.34v-15.29h68.02v9.36c0,41.27-23.5,66.69-65.16,66.69-45.1,0-69.36-32.1-69.36-74.52Z"/>
  <path d="M541.18,230.16l18.73-9.94c9.36-4.97,17.58-13.18,17.58-26.75,0-17.2-11.85-26.94-26.94-26.94-20.06,0-29.81,12.42-31.15,32.48h-17.96c1.34-31.91,18.53-47.39,50.45-47.39,25.8,0,43.95,18.15,43.95,43.76,0,19.3-11.08,31.53-28.66,40.51l-16.62,8.6c-20.64,10.7-29.05,18.15-30.57,37.07h75.86v16.05h-94.39c-.57-35.92,8.22-50.64,39.74-67.45Z"/>
  <path d="M608.33,224.04c0-50.25,24.08-73.38,51.78-73.38s51.78,23.12,51.78,73.38-24.08,75.29-51.78,75.29-51.78-24.08-51.78-75.29ZM660.11,284.04c17.77,0,32.1-15.67,32.1-60s-14.33-58.09-32.1-58.09-32.1,15.67-32.1,58.09,14.33,60,32.1,60Z"/>
</svg>