<svg width="800" height="300" xmlns="http://www.w3.org/2000/svg">
 <g>
  <title>Layer 1</title>
  <g stroke="null">

   <path stroke="null" fill="#fff" d="m231.04612,148.69618l250.91988,0l0,19.56354l-250.91988,0l0,-19.56354z" class="cls-1"/>
   <path stroke="null" fill="#fff" d="m39.815,150.60513c0,-56.50719 32.90119,-94.1745 88.92178,-94.1745c43.86825,0 70.33143,25.98907 74.38637,57.69248l-24.7913,0c-3.58083,-21.93412 -20.4993,-38.37848 -50.78037,-38.37848c-42.67048,0 -61.98449,31.2293 -61.98449,74.86049c0,47.92319 25.51495,73.42566 60.79919,73.42566s54.59825,-19.07695 56.74425,-56.27013l-60.3126,0l0,-19.07695l84.86684,0l0,11.67824c0,51.49154 -29.32036,83.20743 -81.29849,83.20743c-56.27013,0 -86.53873,-40.05036 -86.53873,-92.97673l-0.01248,0.01248z" class="cls-1"/>
   <path stroke="null" fill="#fff" d="m547.19444,156.44425l23.36895,-12.40189c11.67824,-6.20094 21.93412,-16.44435 21.93412,-33.3753c0,-21.46001 -14.78495,-33.61236 -33.61236,-33.61236c-25.02836,0 -37.19319,15.49612 -38.86507,40.52448l-22.40824,0c1.67188,-39.8133 23.11941,-59.12731 62.94519,-59.12731c32.19001,0 54.83531,22.6453 54.83531,54.59825c0,24.08012 -13.82424,39.33919 -35.75836,50.54331l-20.73636,10.73c-25.75201,13.35012 -36.24495,22.6453 -38.14142,46.25131l94.64861,0l0,20.02518l-117.76803,0c-0.71117,-44.81648 10.25589,-63.18225 49.5826,-84.15567l-0.02495,0z" class="cls-1"/>
   <path stroke="null" fill="#fff" d="m630.97581,148.80848c0,-62.69566 30.04401,-91.55438 64.6046,-91.55438s64.6046,28.84624 64.6046,91.55438s-30.04401,93.93744 -64.6046,93.93744s-64.6046,-30.04401 -64.6046,-93.93744zm64.6046,74.86049c22.17118,0 40.05036,-19.55106 40.05036,-74.86049s-17.87918,-72.47743 -40.05036,-72.47743s-40.05036,19.55106 -40.05036,72.47743s17.87918,74.86049 40.05036,74.86049z" class="cls-1"/>
  </g>
 </g>

</svg>