<svg width="800" height="300" xmlns="http://www.w3.org/2000/svg">
 <g>
  <title>Layer 1</title>
  <g stroke="null">

   <path stroke="null" fill="url(#svg_9)" d="m231.44651,148.86857l249.87407,0l0,19.482l-249.87407,0l0,-19.482zm-107.80952,18.99744l60.06122,0c-2.13706,37.03817 -19.94172,56.0356 -56.50774,56.0356s-60.54579,-25.40861 -60.54579,-73.11963c0,-43.44934 19.23351,-74.54848 61.72614,-74.54848c30.15486,0 47.00281,16.37582 50.56872,38.21852l24.68797,0c-4.03804,-31.57128 -30.39093,-57.45203 -74.07634,-57.45203c-55.79953,0 -88.55116,37.51031 -88.55116,93.78198c0,52.70577 30.15486,92.58921 86.17804,92.58921c51.76149,0 80.95964,-31.57128 80.95964,-82.86063l0,-11.62956l-84.51312,0l0,18.99744l0.01242,-0.01242zm434.26972,6.52299l20.64993,-10.68528c21.8427,-11.15742 35.60932,-26.35289 35.60932,-50.33265c0,-31.81977 -22.55091,-54.37069 -54.60676,-54.37069c-39.64736,0 -61.01793,19.23351 -62.68284,58.88087l22.31484,0c1.66492,-24.92404 13.76662,-40.35557 38.70308,-40.35557c18.76137,0 33.47227,12.1017 33.47227,33.47227c0,16.86038 -10.21314,27.0611 -21.8427,33.2362l-23.27155,12.3502c-39.17522,20.89842 -50.09658,39.17522 -49.37594,83.80491l117.27718,0l0,-19.94172l-94.25412,0c1.90099,-23.50762 12.3502,-32.76406 37.98245,-46.05853l0.02485,0zm200.47328,-25.40861c0,63.62712 -29.91879,93.54591 -64.33533,93.54591s-64.33533,-29.91879 -64.33533,-93.54591s29.91879,-91.17279 64.33533,-91.17279s64.33533,28.72601 64.33533,91.17279zm-24.43948,0c0,-52.70577 -17.80466,-72.17535 -39.88343,-72.17535s-39.88343,19.46958 -39.88343,72.17535s17.80466,74.54848 39.88343,74.54848s39.88343,-19.46958 39.88343,-74.54848z" class="cls-1"/>
  </g>
 </g>
 <defs>
  <linearGradient gradientTransform="matrix(1.2424745559692383,0,0,1.2424745559692383,-126.125244140625,-129.38363647460938)" gradientUnits="userSpaceOnUse" y2="225" x2="134.52" y1="225" x1="711.89" id="svg_9">
   <stop stop-color="#0f1724" offset="0"/>
   <stop stop-color="#0d214b" offset="0.25"/>
   <stop stop-color="#1c5d93" offset="0.5"/>
   <stop stop-color="#b59c90" offset="0.75"/>
   <stop stop-color="#ef642d" offset="1"/>
  </linearGradient>
 </defs>
</svg>