<svg width="800" height="300" xmlns="http://www.w3.org/2000/svg">
 <g>
  <title>Layer 1</title>
  <g stroke="null">
   <path stroke="null" d="m232.45334,148.70704l248.82995,0l0,19.4006l-248.82995,0l0,-19.4006z"/>
   <path stroke="null" d="m42.815,150.60008c0,-56.03654 32.62715,-93.39011 88.18115,-93.39011c43.50286,0 69.74563,25.7726 73.7668,57.21196l-24.58481,0c-3.551,-21.75143 -20.32856,-38.05882 -50.35741,-38.05882c-42.31507,0 -61.46821,30.96919 -61.46821,74.23697c0,47.52403 25.30243,72.8141 60.29279,72.8141s54.1435,-18.91805 56.27162,-55.80146l-59.81025,0l0,-18.91805l84.15998,0l0,11.58097c0,51.06266 -29.07615,82.51439 -80.62135,82.51439c-55.80146,0 -85.81794,-39.71678 -85.81794,-92.20232l-0.01237,0.01237z"/>
   <path stroke="null" d="m545.96844,156.39057l23.17431,-12.29859c11.58097,-6.1493 21.75143,-16.30739 21.75143,-33.09732c0,-21.28126 -14.6618,-33.3324 -33.3324,-33.3324c-24.81989,0 -36.8834,15.36705 -38.54136,40.18695l-22.2216,0c1.65796,-39.4817 22.92685,-58.63483 62.42092,-58.63483c31.9219,0 54.37858,22.45668 54.37858,54.1435c0,23.87956 -13.70909,39.01153 -35.46053,50.12233l-20.56364,10.64063c-25.53752,13.23893 -35.94307,22.45668 -37.82374,45.86608l93.86028,0l0,19.85839l-116.78713,0c-0.70525,-44.4432 10.17046,-62.656 49.16962,-83.45473l-0.02475,0z"/>
   <path stroke="null" d="m629.05199,148.8184c0,-62.17346 29.79377,-90.79182 64.06651,-90.79182s64.06651,28.60598 64.06651,90.79182s-29.79377,93.15503 -64.06651,93.15503s-64.06651,-29.79377 -64.06651,-93.15503zm64.06651,74.23697c21.98652,0 39.71678,-19.38822 39.71678,-74.23697s-17.73026,-71.87376 -39.71678,-71.87376s-39.71678,19.38822 -39.71678,71.87376s17.73026,74.23697 39.71678,74.23697z"/>
  </g>
 </g>

</svg>